<svg width="96" height="96" viewBox="0 0 96 96" fill="none" xmlns="http://www.w3.org/2000/svg">
<ellipse cx="47.7124" cy="48.2056" rx="47.5" ry="47.5476" fill="#207879"/>
<path d="M65.7124 33.55V30.55M58.4424 32.05H65.7124H58.4424ZM40.5824 32.05H54.4424H40.5824ZM28.7124 32.05H36.5824H28.7124ZM28.7124 33.55V30.55V33.55Z" stroke="white" stroke-linecap="round" stroke-linejoin="round"/>
<path d="M33.5524 63.5301C35.999 63.5301 37.9824 62.2541 37.9824 60.6801C37.9824 59.1061 35.999 57.8301 33.5524 57.8301C31.1058 57.8301 29.1224 59.1061 29.1224 60.6801C29.1224 62.2541 31.1058 63.5301 33.5524 63.5301Z" stroke="white" stroke-linecap="round" stroke-linejoin="round"/>
<path d="M29.1224 60.6799V63.0999C29.1224 64.6799 31.1224 65.9499 33.5524 65.9499C35.9824 65.9499 37.9824 64.6799 37.9824 63.0999V60.6799" stroke="white" stroke-linecap="round" stroke-linejoin="round"/>
<path d="M47.2124 65.95C49.659 65.95 51.6424 64.674 51.6424 63.1C51.6424 61.526 49.659 60.25 47.2124 60.25C44.7658 60.25 42.7824 61.526 42.7824 63.1C42.7824 64.674 44.7658 65.95 47.2124 65.95Z" stroke="white" stroke-linecap="round" stroke-linejoin="round"/>
<path d="M60.8724 63.5301C63.319 63.5301 65.3024 62.2541 65.3024 60.6801C65.3024 59.1061 63.319 57.8301 60.8724 57.8301C58.4258 57.8301 56.4424 59.1061 56.4424 60.6801C56.4424 62.2541 58.4258 63.5301 60.8724 63.5301Z" stroke="white" stroke-linecap="round" stroke-linejoin="round"/>
<path d="M33.5524 60.68C33.5524 55.59 47.2124 48.41 47.2124 43.2C47.2124 37.99 41.7724 39 41.9824 43.2C42.2124 48 56.4324 49 56.4424 34.05M56.4424 60.68V63.1C56.4424 64.68 58.4424 65.9501 60.8724 65.9501C63.3024 65.9501 65.3024 64.68 65.3024 63.1V60.68H56.4424Z" stroke="white" stroke-linecap="round" stroke-linejoin="round"/>
<path d="M56.4424 34.05C57.547 34.05 58.4424 33.1546 58.4424 32.05C58.4424 30.9455 57.547 30.05 56.4424 30.05C55.3378 30.05 54.4424 30.9455 54.4424 32.05C54.4424 33.1546 55.3378 34.05 56.4424 34.05Z" stroke="white" stroke-linecap="round" stroke-linejoin="round"/>
<path d="M38.5824 34.05C39.687 34.05 40.5824 33.1546 40.5824 32.05C40.5824 30.9455 39.687 30.05 38.5824 30.05C37.4778 30.05 36.5824 30.9455 36.5824 32.05C36.5824 33.1546 37.4778 34.05 38.5824 34.05Z" stroke="white" stroke-linecap="round" stroke-linejoin="round"/>
<path d="M38.5824 34.05C38.5824 39.56 43.0524 41.86 45.0024 43.2C46.9524 44.54 60.8724 50.4001 60.8724 60.68" stroke="white" stroke-linecap="round" stroke-linejoin="round"/>
</svg>
