<svg width="96" height="96" viewBox="0 0 96 96" fill="none" xmlns="http://www.w3.org/2000/svg">
<ellipse cx="47.7124" cy="47.7571" rx="47.5" ry="47.5476" fill="#207879"/>
<path d="M32.8235 21C33.2508 21 33.6606 21.1919 33.9627 21.5335C34.2649 21.8751 34.4346 22.3384 34.4346 22.8214V33.75C34.4341 34.8805 34.7437 35.9833 35.3208 36.9065C35.8979 37.8297 36.7141 38.5278 37.6568 38.9046V22.8214C37.6568 22.3384 37.8266 21.8751 38.1287 21.5335C38.4309 21.1919 38.8407 21 39.268 21C39.6953 21 40.105 21.1919 40.4072 21.5335C40.7093 21.8751 40.8791 22.3384 40.8791 22.8214V38.9046C41.8218 38.5278 42.638 37.8297 43.2151 36.9065C43.7922 35.9833 44.1018 34.8805 44.1013 33.75V22.8214C44.1013 22.3384 44.271 21.8751 44.5732 21.5335C44.8753 21.1919 45.2851 21 45.7124 21C46.1397 21 46.5495 21.1919 46.8516 21.5335C47.1538 21.8751 47.3235 22.3384 47.3235 22.8214V33.75C47.3239 35.8495 46.6826 37.8846 45.5083 39.511C44.3339 41.1374 42.6986 42.2551 40.8791 42.675V70.1786C40.8791 70.6616 40.7093 71.1249 40.4072 71.4665C40.105 71.8081 39.6953 72 39.268 72C38.8407 72 38.4309 71.8081 38.1287 71.4665C37.8266 71.1249 37.6568 70.6616 37.6568 70.1786V42.675C35.8373 42.2551 34.202 41.1374 33.0276 39.511C31.8533 37.8846 31.212 35.8495 31.2124 33.75V22.8214C31.2124 22.3384 31.3821 21.8751 31.6843 21.5335C31.9864 21.1919 32.3962 21 32.8235 21ZM55.3114 26.3878C55.8237 25.8049 56.4005 25.3569 56.9902 25.0618V42.8571H53.768V30.1071C53.768 28.8795 54.3286 27.4952 55.3114 26.3878ZM56.9902 46.5V70.1786C56.9902 70.6616 57.1599 71.1249 57.4621 71.4665C57.7642 71.8081 58.174 72 58.6013 72C59.0286 72 59.4384 71.8081 59.7405 71.4665C60.0427 71.1249 60.2124 70.6616 60.2124 70.1786V22.8214C60.2124 22.3384 60.0427 21.8751 59.7405 21.5335C59.4384 21.1919 59.0286 21 58.6013 21C56.465 21 54.4672 22.1876 53.0301 23.8086C51.5962 25.4334 50.5457 27.6919 50.5457 30.1071V44.6786C50.5457 45.1616 50.7155 45.6249 51.0176 45.9665C51.3198 46.3081 51.7296 46.5 52.1568 46.5H56.9902Z" fill="white"/>
</svg>
