<svg width="80" height="81" viewBox="0 0 80 81" fill="none" xmlns="http://www.w3.org/2000/svg">
<ellipse cx="40" cy="40.1702" rx="40" ry="40.1702" fill="white"/>
<path d="M39.9999 45.0764C44.9633 45.0764 48.9998 41.0228 48.9998 36.0382C48.9998 31.0536 44.9633 27 39.9999 27C35.0365 27 31 31.0536 31 36.0382C31 41.0228 35.0365 45.0764 39.9999 45.0764ZM39.9999 31.5191C42.4816 31.5191 44.4999 33.5459 44.4999 36.0382C44.4999 38.5305 42.4816 40.5573 39.9999 40.5573C37.5182 40.5573 35.5 38.5305 35.5 36.0382C35.5 33.5459 37.5182 31.5191 39.9999 31.5191Z" fill="#2EBAB2"/>
<path d="M38.695 62.7707C39.0758 63.0438 39.5321 63.1906 40 63.1906C40.4679 63.1906 40.9242 63.0438 41.305 62.7707C41.989 62.2849 58.0651 50.6279 57.9998 36.0764C57.9998 26.1095 49.9246 18 40 18C30.0754 18 22.0002 26.1095 22.0002 36.0651C21.9349 50.6279 38.011 62.2849 38.695 62.7707ZM40 22.5191C47.4452 22.5191 53.4999 28.5995 53.4999 36.0877C53.5471 46.1156 43.627 55.1199 40 58.0731C36.3753 55.1176 26.4529 46.1111 26.5001 36.0764C26.5001 28.5995 32.5548 22.5191 40 22.5191Z" fill="#48C3BC"/>
</svg>
