<svg width="46" height="45" viewBox="0 0 46 45" fill="none" xmlns="http://www.w3.org/2000/svg">
<path d="M23.1742 0.56543C10.589 0.56543 0.348389 10.4701 0.348389 22.6471C0.348389 34.8241 10.589 44.7288 23.1742 44.7288C35.7593 44.7288 46 34.8241 46 22.6471C46 10.4701 35.7593 0.56543 23.1742 0.56543ZM23.1742 43.258C11.4275 43.258 1.87153 34.0116 1.87153 22.6471C1.87153 11.2826 11.4275 2.03626 23.1742 2.03626C34.9209 2.03626 44.4769 11.2826 44.4769 22.6471C44.4769 34.0116 34.9209 43.258 23.1742 43.258Z" fill="#006D77"/>
<path d="M28.1562 10.2525H24.3583C19.5212 10.2057 18.9034 13.1019 18.9034 16.2364V18.5156H16.7682C16.6717 18.5032 16.5735 18.5124 16.4813 18.5426C16.389 18.5728 16.3052 18.6231 16.2364 18.6897C16.1675 18.7563 16.1155 18.8374 16.0843 18.9266C16.0531 19.0159 16.0435 19.1109 16.0564 19.2042V23.3358C16.0435 23.4292 16.0531 23.5241 16.0843 23.6134C16.1155 23.7026 16.1675 23.7837 16.2364 23.8503C16.3052 23.9169 16.389 23.9672 16.4813 23.9974C16.5735 24.0276 16.6717 24.0368 16.7682 24.0244H18.9034V34.3533C18.8916 34.4468 18.902 34.5417 18.9338 34.6308C18.9657 34.7199 19.0182 34.8007 19.0872 34.8671C19.1563 34.9336 19.2402 34.9838 19.3324 35.0141C19.4247 35.0444 19.5228 35.0539 19.6195 35.0419H23.9682C24.3882 35.0887 24.7284 34.7596 24.5946 34.3533L24.5974 24.0244H28.1562C28.2527 24.0368 28.3509 24.0276 28.4431 23.9974C28.5353 23.9672 28.6191 23.9169 28.688 23.8503C28.7568 23.7837 28.8089 23.7026 28.8401 23.6134C28.8713 23.5241 28.8808 23.4292 28.8679 23.3358V19.2042C28.8808 19.1109 28.8713 19.0159 28.8401 18.9266C28.8089 18.8374 28.7568 18.7563 28.688 18.6897C28.6191 18.6231 28.5353 18.5728 28.4431 18.5426C28.3509 18.5124 28.2527 18.5032 28.1562 18.5156H24.5932L24.5974 16.4498C24.7355 15.5698 24.7355 15.7131 25.5796 15.7613H28.1263C28.3242 15.7186 28.5348 15.742 28.6829 15.6029C28.8309 15.4638 28.9163 15.2737 28.8665 15.0727V10.9411C28.8796 10.8478 28.8703 10.7528 28.8393 10.6636C28.8083 10.5743 28.7564 10.4932 28.6876 10.4266C28.6189 10.36 28.5351 10.3096 28.443 10.2794C28.3508 10.2492 28.2526 10.24 28.1562 10.2525ZM27.3946 14.3069L25.6095 14.2408C23.3988 14.2408 23.2138 15.4018 23.2138 16.5903L23.2081 19.2015C23.2079 19.2982 23.2274 19.3939 23.2656 19.4833C23.3037 19.5727 23.3596 19.6539 23.4302 19.7224C23.5008 19.7908 23.5847 19.8451 23.677 19.8822C23.7693 19.9192 23.8683 19.9383 23.9682 19.9383H27.4444V22.599H23.9711C23.7694 22.599 23.5759 22.6764 23.4331 22.8143C23.2903 22.9522 23.2099 23.1392 23.2095 23.3344L23.2081 33.6647H20.3269V23.3358C20.3269 22.9295 20.0408 22.6004 19.6195 22.6004H17.4799V19.9396H19.6195C19.7193 19.9398 19.8183 19.9209 19.9106 19.884C20.0029 19.8472 20.0868 19.7931 20.1575 19.7248C20.2999 19.5857 20.3255 19.3984 20.3255 19.2028V16.235C20.3255 13.1474 20.9704 11.6765 24.3569 11.6765H27.3932V14.3069H27.3946Z" fill="#006D77"/>
</svg>
