<svg width="46" height="46" viewBox="0 0 46 46" fill="none" xmlns="http://www.w3.org/2000/svg">
<path d="M22.5 17.72C21.4082 17.72 20.341 18.0297 19.4333 18.6098C18.5255 19.19 17.818 20.0146 17.4002 20.9794C16.9824 21.9442 16.8731 23.0059 17.0861 24.0301C17.2991 25.0543 17.8248 25.9951 18.5968 26.7335C19.3688 27.4719 20.3523 27.9748 21.4231 28.1785C22.4939 28.3823 23.6038 28.2777 24.6124 27.8781C25.6211 27.4785 26.4832 26.8017 27.0897 25.9334C27.6963 25.0651 28.02 24.0443 28.02 23C28.02 21.5997 27.4384 20.2567 26.4032 19.2665C25.368 18.2763 23.964 17.72 22.5 17.72ZM22.5 26.52C21.7722 26.52 21.0607 26.3136 20.4555 25.9268C19.8503 25.54 19.3787 24.9902 19.1001 24.347C18.8216 23.7038 18.7487 22.9961 18.8907 22.3133C19.0327 21.6305 19.3832 21.0033 19.8978 20.511C20.4125 20.0187 21.0682 19.6835 21.7821 19.5476C22.4959 19.4118 23.2358 19.4815 23.9083 19.7479C24.5807 20.0144 25.1554 20.4655 25.5598 21.0444C25.9642 21.6233 26.18 22.3038 26.18 23C26.177 23.9327 25.7883 24.8263 25.0988 25.4858C24.4093 26.1453 23.4751 26.5171 22.5 26.52ZM27.56 12H17.44C15.732 12 14.094 12.649 12.8862 13.8042C11.6785 14.9594 11 16.5263 11 18.16V27.84C11 29.4737 11.6785 31.0406 12.8862 32.1958C14.094 33.351 15.732 34 17.44 34H27.56C29.268 34 30.906 33.351 32.1138 32.1958C33.3215 31.0406 34 29.4737 34 27.84V18.16C34 16.5263 33.3215 14.9594 32.1138 13.8042C30.906 12.649 29.268 12 27.56 12ZM32.16 27.84C32.16 28.4178 32.041 28.99 31.8098 29.5238C31.5787 30.0576 31.2398 30.5427 30.8127 30.9513C30.3855 31.3598 29.8784 31.684 29.3203 31.9051C28.7622 32.1262 28.1641 32.24 27.56 32.24H17.44C16.8359 32.24 16.2378 32.1262 15.6797 31.9051C15.1216 31.684 14.6145 31.3598 14.1873 30.9513C13.7602 30.5427 13.4213 30.0576 13.1902 29.5238C12.959 28.99 12.84 28.4178 12.84 27.84V18.16C12.84 16.993 13.3246 15.8739 14.1873 15.0487C15.05 14.2236 16.22 13.76 17.44 13.76H27.56C28.1641 13.76 28.7622 13.8738 29.3203 14.0949C29.8784 14.3161 30.3855 14.6402 30.8127 15.0487C31.2398 15.4573 31.5787 15.9424 31.8098 16.4762C32.041 17.01 32.16 17.5822 32.16 18.16V27.84ZM29.86 17.28C29.86 17.5411 29.7791 17.7963 29.6274 18.0134C29.4758 18.2304 29.2603 18.3996 29.0081 18.4995C28.7559 18.5994 28.4785 18.6256 28.2108 18.5746C27.9431 18.5237 27.6972 18.398 27.5042 18.2134C27.3112 18.0288 27.1798 17.7936 27.1265 17.5375C27.0733 17.2815 27.1006 17.0161 27.205 16.7749C27.3095 16.5337 27.4864 16.3275 27.7133 16.1825C27.9403 16.0374 28.2071 15.96 28.48 15.96C28.846 15.96 29.197 16.0991 29.4558 16.3466C29.7146 16.5942 29.86 16.9299 29.86 17.28Z" fill="#006D77"/>
<circle cx="22.565" cy="22.565" r="21.815" stroke="#006D77" stroke-width="1.5"/>
</svg>
