<svg width="47" height="45" viewBox="0 0 47 45" fill="none" xmlns="http://www.w3.org/2000/svg">
<path d="M23.3767 0C10.7915 0 0.550873 9.90457 0.550873 22.0815C0.550873 34.2583 10.7915 44.1629 23.3767 44.1629C35.9618 44.1629 46.2025 34.2583 46.2025 22.0815C46.2025 9.90457 35.9618 0 23.3767 0ZM23.3767 42.6921C11.63 42.6921 2.07402 33.4458 2.07402 22.0815C2.07402 10.7171 11.63 1.47081 23.3767 1.47081C35.1234 1.47081 44.6793 10.7171 44.6793 22.0815C44.6793 33.4458 35.1234 42.6921 23.3767 42.6921Z" fill="#006D77"/>
<path d="M14.8053 11.7427H32.8963C33.8652 11.7426 34.7974 12.1225 35.5016 12.8044C36.2059 13.4862 36.6288 14.4184 36.6837 15.4097L36.6895 15.6297V29.384C36.6896 30.3769 36.3189 31.3321 35.6535 32.0538C34.9881 32.7755 34.0784 33.2089 33.111 33.2651L32.8963 33.2711H14.8053C13.8364 33.2711 12.9042 32.8913 12.2 32.2094C11.4957 31.5275 11.0728 30.5953 11.0179 29.6041L11.0121 29.384V15.6297C11.012 14.6369 11.3827 13.6816 12.0481 12.96C12.7135 12.2383 13.6232 11.8049 14.5906 11.7487L14.8053 11.7427H32.8963H14.8053ZM34.9388 18.8052L24.2546 24.4983C24.1511 24.5534 24.038 24.5867 23.9217 24.5964C23.8055 24.606 23.6885 24.5918 23.5777 24.5545L23.447 24.4983L12.7628 18.8052V29.384C12.7628 29.9093 12.9556 30.4154 13.3028 30.8018C13.6501 31.1882 14.1264 31.4266 14.6373 31.4699L14.8053 31.477H32.8963C33.4091 31.477 33.9031 31.2793 34.2802 30.9232C34.6573 30.5672 34.8899 30.0787 34.9318 29.555L34.9388 29.384V18.8052ZM32.8963 13.5367H14.8053C14.2927 13.5367 13.7989 13.7343 13.4218 14.0901C13.0447 14.4459 12.812 14.934 12.7698 15.4575L12.7628 15.6297V16.7827L23.8508 22.6911L34.9388 16.7827V15.6297C34.9388 15.1043 34.7458 14.598 34.3984 14.2116C34.0509 13.8252 33.5743 13.5868 33.0632 13.5439L32.8963 13.5367Z" fill="#006D77"/>
</svg>
