<svg width="96" height="96" viewBox="0 0 96 96" fill="none" xmlns="http://www.w3.org/2000/svg">
<ellipse cx="47.7124" cy="48.2056" rx="47.5" ry="47.5476" fill="#207879"/>
<g clip-path="url(#clip0_168_7)">
<path d="M63.0124 6H32.8791C30.3902 6 28.3013 7.13477 26.6124 9.4043C23.5902 13.6191 21.2124 19.0768 19.4791 25.7773C17.7457 32.4779 16.8791 39.6107 16.8791 47.1758C16.8791 55.9297 17.8569 63.9541 19.8124 71.249C21.768 78.5439 24.3013 83.6504 27.4124 86.5684C28.7457 88.1895 30.568 89 32.8791 89H63.2791C66.0346 89 68.2124 87.7572 69.8124 85.2715C76.3013 75.8691 79.5457 63.3867 79.5457 47.8242C79.5457 31.0729 76.1235 18.1582 69.2791 9.08008C67.5902 7.02669 65.5013 6 63.0124 6ZM73.5457 40.5293H62.4791C62.2124 35.4499 61.8124 30.8568 61.2791 26.75H71.0124C72.0791 30.1003 72.9235 34.6934 73.5457 40.5293ZM40.8791 68.25C40.2568 64.3594 39.9457 59.7663 39.9457 54.4707H56.7457C56.568 58.4694 56.3013 63.0625 55.9457 68.25H40.8791ZM54.4791 75.2207C54.0346 77.5983 53.2791 79.8678 52.2124 82.0293H43.6791C43.3235 81.3809 42.568 79.1113 41.4124 75.2207H54.4791ZM25.4124 69.709C24.2569 64.6296 23.4124 59.5501 22.8791 54.4707H33.9457C33.9457 59.1178 34.2568 63.7109 34.8791 68.25H25.4124V69.709ZM55.2791 26.75C55.7235 29.668 56.1235 34.2611 56.4791 40.5293H39.9457C40.3013 34.2611 40.7013 29.668 41.1457 26.75H55.2791ZM42.2124 19.7793C42.4791 18.5905 43.1457 16.321 44.2124 12.9707H52.2124C53.1013 15.0241 53.768 17.2936 54.2124 19.7793H42.2124ZM51.0124 47.5C51.0124 48.3646 50.7235 49.1481 50.1457 49.8506C49.568 50.5531 48.9235 50.9043 48.2124 50.9043C47.5013 50.9043 46.8568 50.5531 46.2791 49.8506C45.7013 49.1481 45.4124 48.3646 45.4124 47.5C45.4124 46.6354 45.7013 45.8519 46.2791 45.1494C46.8568 44.4469 47.5013 44.0957 48.2124 44.0957C48.9235 44.0957 49.568 44.4469 50.1457 45.1494C50.7235 45.8519 51.0124 46.6354 51.0124 47.5ZM33.9457 40.5293H22.8791C23.1457 35.3418 23.9902 30.4245 25.4124 25.7773V26.75H35.1457C34.6124 30.8568 34.2124 35.4499 33.9457 40.5293ZM62.4791 54.4707H73.5457C73.2791 58.5775 72.5235 63.1706 71.2791 68.25H61.5457C61.6346 66.4128 61.7902 63.9541 62.0124 60.874C62.2346 57.7939 62.3902 55.6595 62.4791 54.4707ZM65.0124 13.9434C66.6124 15.8887 67.7235 17.834 68.3457 19.7793H59.8124C59.1013 16.5371 58.568 14.2676 58.2124 12.9707H63.0124C64.0791 12.9707 64.7457 13.2949 65.0124 13.9434ZM32.8791 12.9707H37.9457C37.768 13.6191 37.5013 14.6999 37.1457 16.2129C36.7902 17.7259 36.4791 18.9147 36.2124 19.7793H27.4124C28.6568 17.2936 29.7235 15.3483 30.6124 13.9434C31.1457 13.2949 31.9013 12.9707 32.8791 12.9707ZM31.1457 81.3809C29.9902 80.4082 28.7457 78.3548 27.4124 75.2207H36.2124C36.4791 76.0853 36.7902 77.2741 37.1457 78.7871C37.5013 80.3001 37.768 81.3809 37.9457 82.0293H32.8791C32.0791 82.0293 31.5013 81.8131 31.1457 81.3809ZM63.2791 82.0293H58.7457C58.9235 81.3809 59.1902 80.3001 59.5457 78.7871C59.9013 77.2741 60.2124 76.0853 60.4791 75.2207H68.7457C67.9457 76.9499 66.8791 78.7871 65.5457 80.7324C65.1013 81.597 64.3457 82.0293 63.2791 82.0293Z" fill="white"/>
</g>
<defs>
<clipPath id="clip0_168_7">
<rect width="64" height="83" fill="white" transform="translate(16.2124 6)"/>
</clipPath>
</defs>
</svg>
