<svg width="80" height="81" viewBox="0 0 80 81" fill="none" xmlns="http://www.w3.org/2000/svg">
<ellipse cx="40" cy="40.1702" rx="40" ry="40.1702" fill="white"/>
<path d="M57.7778 22H21.2222C19.8372 22 18.5089 22.4609 17.5296 23.2814C16.5502 24.1019 16 25.2147 16 26.375V52.625C16 53.7853 16.5502 54.8981 17.5296 55.7186C18.5089 56.5391 19.8372 57 21.2222 57H57.7778C60.65 57 63 55.0313 63 52.625V26.375C63 23.9687 60.65 22 57.7778 22ZM57.7778 52.625H21.2222V26.375H57.7778V52.625ZM27.75 41.6875H32.9722V46.0625H36.8889V32.9375H32.9722V38.4062H27.75V32.9375H23.8333V46.0625H27.75V41.6875ZM44.7222 46.0625H46.6806V49.3438H50.5972V46.0625H52.5556C53.9917 46.0625 55.1667 45.0781 55.1667 43.875V35.125C55.1667 33.9219 53.9917 32.9375 52.5556 32.9375H44.7222C43.2861 32.9375 42.1111 33.9219 42.1111 35.125V43.875C42.1111 45.0781 43.2861 46.0625 44.7222 46.0625ZM46.0278 36.2188H51.25V42.7812H46.0278V36.2188Z" fill="#48C3BC"/>
</svg>
