<svg width="96" height="96" viewBox="0 0 96 96" fill="none" xmlns="http://www.w3.org/2000/svg">
<ellipse cx="47.7124" cy="47.7571" rx="47.5" ry="47.5476" fill="#207879"/>
<path d="M67.8192 36.2552C66.0503 34.7816 61.7693 31.7511 55.7409 31.0606C53.5261 30.8156 51.2729 31.3241 49.499 32.3911C47.7281 31.3872 45.4739 30.8721 43.2492 31.1235C35.4038 32.0228 30.472 36.9201 30.2653 37.1319C29.4932 37.913 29.7209 39.0111 30.7698 39.5846C31.1744 39.806 31.664 39.9253 32.1666 39.9248C32.8957 39.9248 33.6127 39.6783 34.0744 39.2102C34.1143 39.169 38.0306 35.2715 43.9673 34.5905C44.7014 34.5203 45.4419 34.6395 46.0896 34.9181L40.365 39.258C39.1444 40.1566 38.3864 41.2964 38.3864 42.6407C38.3864 43.9193 39.057 45.1204 40.2725 46.0227C41.5758 46.9293 43.1902 47.3604 44.9128 47.3604C46.6355 47.3604 48.2538 46.8626 49.4715 45.9584L50.5887 45.1291L62.8147 52.5009C63.0422 52.6379 63.0761 52.8846 62.8639 53.0832L60.1381 55.6951C59.9566 55.8595 59.6213 55.8847 59.4337 55.7728L57.2464 54.4073L54.6684 56.4347C54.4376 56.6448 54.1423 56.695 53.9886 56.7064C53.8255 56.7178 53.5395 56.7156 53.318 56.5808L50.1276 54.56L48.5845 55.6308L48.3077 55.8455C47.7325 56.3684 46.9207 56.6974 46.0161 56.7661C45.084 56.8255 44.2196 56.6382 43.6044 56.2706L34.7639 50.334H27.45V36.3429H18V55.0171L24.3 55.0201C25.4557 55.0201 26.4233 54.5301 26.9716 53.8409H32.9408L40.5264 58.9302C41.9892 59.8172 43.7808 60.2848 45.6412 60.2848C45.9243 60.2848 46.2103 60.2757 46.4933 60.2528C47.834 60.1501 49.0931 59.8098 50.1818 59.2665L50.271 59.3259C51.4552 60.0474 52.9563 60.3787 54.4733 60.2596C55.7717 60.1591 56.9618 59.7458 57.8113 59.1381C59.8873 59.7363 62.3483 59.3094 63.8406 57.9348L66.5663 55.3229C68.3844 53.6557 68.0399 51.1964 65.7942 49.8426L53.9521 42.7002L54.7771 42.0879C55.7 41.4028 55.7 40.2928 54.7771 39.6082C53.8543 38.9232 52.3595 38.9232 51.4362 39.6082L46.1334 43.5393C45.4837 44.0289 44.3517 44.0289 43.702 43.5393C43.376 43.2996 43.1975 42.9799 43.1975 42.64C43.1975 42.2975 43.3759 41.9778 43.7174 41.7245L52.1742 35.3215C52.9431 34.7484 53.9982 34.4631 55.0229 34.5887C60.9046 35.2623 64.8864 39.1718 64.9257 39.2127C65.2297 39.5163 65.6408 39.7202 66.0912 39.8247H71.55V52.6175C71.55 53.9085 72.9606 54.9591 74.6114 54.9591L81 55.0244V36.3283L67.8192 36.2552ZM22.725 52.6865C21.8637 52.6865 21.15 52.1572 21.15 51.5183C21.15 50.8698 21.8637 50.35 22.725 50.35C23.5863 50.35 24.3 50.8746 24.3 51.5248C24.3 52.1605 23.5863 52.6865 22.725 52.6865V52.6865ZM76.275 52.6865C75.4137 52.6865 74.7 52.1572 74.7 51.5183C74.7 50.8698 75.4137 50.35 76.275 50.35C77.1363 50.35 77.85 50.87 77.85 51.5183C77.85 52.1605 77.1413 52.6865 76.275 52.6865Z" fill="white"/>
</svg>
