<svg width="95" height="96" viewBox="0 0 95 96" fill="none" xmlns="http://www.w3.org/2000/svg">
<ellipse cx="47.5" cy="47.7572" rx="47.5" ry="47.5476" fill="#207879"/>
<path d="M32.6111 21C33.0384 21 33.4482 21.1919 33.7503 21.5335C34.0525 21.8751 34.2222 22.3384 34.2222 22.8214V33.75C34.2217 34.8805 34.5313 35.9833 35.1084 36.9065C35.6855 37.8297 36.5017 38.5278 37.4444 38.9046V22.8214C37.4444 22.3384 37.6142 21.8751 37.9163 21.5335C38.2185 21.1919 38.6283 21 39.0556 21C39.4828 21 39.8926 21.1919 40.1948 21.5335C40.4969 21.8751 40.6667 22.3384 40.6667 22.8214V38.9046C41.6094 38.5278 42.4256 37.8297 43.0027 36.9065C43.5798 35.9833 43.8894 34.8805 43.8889 33.75V22.8214C43.8889 22.3384 44.0586 21.8751 44.3608 21.5335C44.6629 21.1919 45.0727 21 45.5 21C45.9273 21 46.3371 21.1919 46.6392 21.5335C46.9414 21.8751 47.1111 22.3384 47.1111 22.8214V33.75C47.1115 35.8495 46.4702 37.8846 45.2959 39.511C44.1215 41.1374 42.4862 42.2551 40.6667 42.675V70.1786C40.6667 70.6616 40.4969 71.1249 40.1948 71.4665C39.8926 71.8081 39.4828 72 39.0556 72C38.6283 72 38.2185 71.8081 37.9163 71.4665C37.6142 71.1249 37.4444 70.6616 37.4444 70.1786V42.675C35.6249 42.2551 33.9896 41.1374 32.8152 39.511C31.6409 37.8846 30.9996 35.8495 31 33.75V22.8214C31 22.3384 31.1697 21.8751 31.4719 21.5335C31.774 21.1919 32.1838 21 32.6111 21ZM55.099 26.3878C55.6113 25.8049 56.1881 25.3569 56.7778 25.0618V42.8571H53.5556V30.1071C53.5556 28.8795 54.1162 27.4952 55.099 26.3878ZM56.7778 46.5V70.1786C56.7778 70.6616 56.9475 71.1249 57.2497 71.4665C57.5518 71.8081 57.9616 72 58.3889 72C58.8162 72 59.226 71.8081 59.5281 71.4665C59.8303 71.1249 60 70.6616 60 70.1786V22.8214C60 22.3384 59.8303 21.8751 59.5281 21.5335C59.226 21.1919 58.8162 21 58.3889 21C56.2526 21 54.2548 22.1876 52.8177 23.8086C51.3838 25.4334 50.3333 27.6919 50.3333 30.1071V44.6786C50.3333 45.1616 50.5031 45.6249 50.8052 45.9665C51.1074 46.3081 51.5172 46.5 51.9444 46.5H56.7778Z" fill="white"/>
</svg>
