<svg width="80" height="81" viewBox="0 0 80 81" fill="none" xmlns="http://www.w3.org/2000/svg">
<ellipse cx="40" cy="40.1702" rx="40" ry="40.1702" fill="white"/>
<path d="M27 47.7252C27.4629 52.9618 31.7327 56.678 38.2327 57.1586V60.9785H41.4952V57.1586C48.5958 56.5963 53 52.6414 53 46.7923C53 41.7976 50.0378 38.9076 43.7536 37.2803L41.4952 36.6929V24.7496C45.0048 25.0952 47.3727 26.9925 47.9702 29.826H52.5683C52.0491 24.7999 47.7512 21.1937 41.4952 20.7947V17H38.2327V20.8732C32.1675 21.5957 28.0041 25.4973 28.0041 30.7872C28.0041 35.3547 31.0257 38.5871 36.3277 39.9505L38.2358 40.4594V53.122C34.6417 52.588 32.1675 50.609 31.57 47.7252H27ZM37.6071 35.6751C34.3446 34.849 32.6023 33.0835 32.6023 30.5988C32.6023 27.6334 34.8044 25.4439 38.2327 24.8564V35.8353L37.6071 35.6783V35.6751ZM42.5837 41.5557C46.6095 42.5703 48.3768 44.2541 48.3768 47.1127C48.3768 50.5587 45.7931 52.855 41.4952 53.2037V41.2824L42.5837 41.5525V41.5557Z" fill="#48C3BC"/>
</svg>
