<svg width="110" height="91" viewBox="0 0 110 91" fill="none" xmlns="http://www.w3.org/2000/svg">
<path d="M99.0249 2.96094H10.7332C6.98081 2.96094 3.94154 5.4991 3.94154 8.63281V82.3672C3.94154 85.5009 6.98081 88.0391 10.7332 88.0391H99.0249C102.777 88.0391 105.817 85.5009 105.817 82.3672V8.63281C105.817 5.4991 102.777 2.96094 99.0249 2.96094Z" fill="#427687"/>
<path d="M93.6764 2.96094H10.3087C8.62383 2.97114 7.0114 3.53464 5.81996 4.52964C4.62852 5.52464 3.95377 6.87122 3.94155 8.27832V77.6879C3.93306 80.6231 6.77707 82.9982 10.2918 83.0053H93.5916C97.1062 83.0124 99.9502 80.6373 99.9587 77.7021V8.27832C100.035 5.40693 97.3015 3.02475 93.8632 2.96094H93.6764Z" fill="#8CAFBF"/>
<path opacity="0.3" d="M34.2494 9.27083C34.2494 7.64016 32.891 7.14387 25.0806 7.35657C18.5436 7.56926 15.3176 8.20735 13.365 10.1925C11.4124 12.1777 10.903 16.2189 10.8181 21.04C10.8181 24.4431 10.8181 27.6335 12.9405 27.6335C15.827 27.6335 15.827 22.0325 18.2041 18.913C22.7884 12.7448 34.2494 11.3978 34.2494 9.27083Z" fill="white"/>
<path d="M16.8033 57.0565H11.1152V34.2839H26.7446V38.2401H16.8033V44.1105H26.0569V48.0524H16.8033V57.0565ZM37.4839 48.3218V57.0565H31.7025V34.2839H39.6487C43.3587 34.2839 46.1008 34.844 47.8751 35.9713C49.6495 37.0986 50.5409 38.8073 50.5409 41.1044C50.5409 42.4443 50.0994 43.6354 49.2165 44.6776C48.3336 45.7199 47.0856 46.5352 45.4641 47.1307L53.4868 57.0565H47.0686L40.5571 48.3147H37.4839V48.3218ZM37.4839 44.3941H39.3516C41.1769 44.3941 42.5267 44.1388 43.4011 43.6284C44.2756 43.1179 44.7085 42.3167 44.7085 41.232C44.7085 40.1543 44.2671 39.3815 43.3757 38.9278C42.4843 38.474 41.1089 38.2401 39.2412 38.2401H37.4839V44.3941ZM72.6308 57.0565H56.925V34.2839H72.6308V38.2401H62.7064V43.2384H71.9431V47.1945H62.7064V53.0649H72.6308V57.0565ZM92.9633 57.0565H77.2576V34.2839H92.9633V38.2401H83.039V43.2384H92.2757V47.1945H83.039V53.0649H92.9633V57.0565Z" fill="#FAFAFA"/>
</svg>
