<svg width="96" height="96" viewBox="0 0 96 96" fill="none" xmlns="http://www.w3.org/2000/svg">
<ellipse cx="47.7124" cy="47.7571" rx="47.5" ry="47.5476" fill="#207879"/>
<path d="M43.0457 48.5V62.2083C43.0457 63.2471 43.4847 64.2433 44.2661 64.9778C45.0475 65.7124 46.1073 66.125 47.2124 66.125C48.3175 66.125 49.3773 65.7124 50.1587 64.9778C50.9401 64.2433 51.3791 63.2471 51.3791 62.2083V48.5M63.8791 46.7375C63.8791 37.9759 56.4166 30.875 47.2124 30.875C38.0082 30.875 30.5457 37.9759 30.5457 46.7375C30.5457 47.2049 30.7433 47.6532 31.0949 47.9838C31.4465 48.3143 31.9234 48.5 32.4207 48.5H62.0041C62.5013 48.5 62.9783 48.3143 63.3299 47.9838C63.6815 47.6532 63.8791 47.2049 63.8791 46.7375V46.7375Z" stroke="white" stroke-width="2" stroke-linecap="round" stroke-linejoin="round"/>
</svg>
